<?xml version="1.0" encoding="UTF-8"?>
<svg width="16px" height="16px" viewBox="0 0 16 16" version="1.1" xmlns="http://www.w3.org/2000/svg" xmlns:xlink="http://www.w3.org/1999/xlink">
    <!-- Generator: Sketch 40.2 (33826) - http://www.bohemiancoding.com/sketch -->
    <title>Fill 40</title>
    <desc>Created with Sketch.</desc>
    <defs></defs>
    <g id="Chat" stroke="none" stroke-width="1" fill="none" fill-rule="evenodd">
        <g id="Messages" transform="translate(-1348.000000, -1054.000000)" fill="#4990E2">
            <g id="Conversation" transform="translate(593.000000, 57.000000)">
                <g id="Send-bar" transform="translate(1.000000, 962.000000)">
                    <path d="M757.889521,46.1200214 L767.425652,37.8477234 L759.713632,47.3040185 L759.713632,50.4240399 C759.713632,50.551635 759.745709,50.647866 759.825545,50.759779 C759.889699,50.85601 759.985217,50.9194511 760.097843,50.967923 C760.145602,50.9836051 760.209756,51 760.289592,51 C760.465659,51 760.625331,50.935846 760.721562,50.791856 L762.881412,48.1515638 L766.929528,49.8160029 C767.009364,49.8316849 767.073518,49.8480798 767.137672,49.8480798 C767.249585,49.8480798 767.345103,49.8316849 767.425652,49.7839259 C767.585324,49.6876949 767.681555,49.5600998 767.713632,49.3840328 L769.985395,35.672191 C770.033154,35.4319701 769.953318,35.240221 769.745174,35.096231 C769.649656,35.032077 769.553425,35 769.425117,35 C769.329599,35 769.233368,35.032077 769.137137,35.0798361 L754.28977,43.6557961 C754.081626,43.7677092 753.985395,43.9437762 754.00179,44.1839971 C754.017472,44.4242181 754.14578,44.5838902 754.353924,44.6637263 L757.889521,46.1200214 Z" id="Fill-40"></path>
                </g>
            </g>
        </g>
    </g>
</svg>